<?xml version="1.0" encoding="UTF-8"?>
<svg width="128" height="128" viewBox="0 0 128 128" xmlns="http://www.w3.org/2000/svg">
  <!-- Background circle -->
  <circle cx="64" cy="64" r="60" fill="#2B7CE9" stroke="#1a5bcc" stroke-width="2"/>
  
  <!-- Main "/" slash character -->
  <path d="M45 25 L83 103" stroke="#FFFFFF" stroke-width="6" stroke-linecap="round"/>
  
  <!-- Markdown "M" letter integrated with slash -->
  <g fill="#FFFFFF" font-family="Arial, sans-serif" font-weight="bold" font-size="32">
    <!-- Left part of M -->
    <path d="M25 85 L25 45 L35 45 L45 65 L55 45 L65 45 L65 85 L55 85 L55 55 L50 70 L40 70 L35 55 L35 85 Z" opacity="0.9"/>
    
    <!-- Right part connecting to slash -->
    <path d="M75 85 L75 45 L85 45 L95 65 L105 45 L105 85 L95 85 L95 55 L85 75 L85 85 Z" opacity="0.7"/>
  </g>
  
  <!-- Block symbols -->
  <g fill="#FFFFFF" opacity="0.6">
    <!-- Header block -->
    <rect x="15" y="20" width="20" height="3" rx="1"/>
    <rect x="15" y="25" width="15" height="2" rx="1"/>
    
    <!-- List bullet -->
    <circle cx="18" cy="105" r="2"/>
    <rect x="23" y="103" width="12" height="2" rx="1"/>
    <circle cx="18" cy="110" r="2"/>
    <rect x="23" y="108" width="15" height="2" rx="1"/>
    
    <!-- Code block -->
    <rect x="93" y="18" width="18" height="12" rx="2" fill="none" stroke="#FFFFFF" stroke-width="1" opacity="0.4"/>
    <rect x="95" y="21" width="6" height="1" rx="0.5"/>
    <rect x="95" y="24" width="8" height="1" rx="0.5"/>
    <rect x="95" y="27" width="4" height="1" rx="0.5"/>
  </g>
  
  <!-- Subtle highlight -->
  <ellipse cx="50" cy="35" rx="15" ry="8" fill="#FFFFFF" opacity="0.15"/>
</svg>